<?xml version="1.0" encoding="UTF-8"?>
<svg xmlns="http://www.w3.org/2000/svg" xmlns:xlink="http://www.w3.org/1999/xlink" width="54.15pt" height="78.22pt" viewBox="0 0 54.15 78.22" version="1.1">
<defs>
<clipPath id="clip1">
  <path d="M 0 0 L 54.148438 0 L 54.148438 78.21875 L 0 78.21875 Z M 0 0 "/>
</clipPath>
</defs>
<g id="surface1">
<g clip-path="url(#clip1)" clip-rule="nonzero">
<path style=" stroke:none;fill-rule:nonzero;fill:rgb(10.115051%,16.029358%,28.009033%);fill-opacity:1;" d="M 42.117188 60.167969 L 51.144531 60.167969 L 51.144531 75.210938 L 3.007812 75.210938 L 3.007812 60.167969 L 12.035156 60.167969 C 13.695312 60.167969 15.042969 58.820312 15.042969 57.160156 L 15.042969 21.058594 C 15.042969 19.398438 13.695312 18.050781 12.035156 18.050781 L 3.007812 18.050781 L 3.007812 3.007812 L 51.144531 3.007812 L 51.144531 18.050781 L 42.117188 18.050781 C 40.457031 18.050781 39.109375 19.398438 39.109375 21.058594 L 39.109375 57.160156 C 39.109375 58.820312 40.457031 60.167969 42.117188 60.167969 Z M 54.152344 21.058594 L 54.152344 0 L 0 0 L 0 21.058594 L 12.035156 21.058594 L 12.035156 57.160156 L 0 57.160156 L 0 78.21875 L 54.152344 78.21875 L 54.152344 57.160156 L 42.117188 57.160156 L 42.117188 21.058594 L 54.152344 21.058594 "/>
</g>
<path style=" stroke:none;fill-rule:nonzero;fill:rgb(94.5755%,30.484009%,10.836792%);fill-opacity:1;" d="M 42.117188 18.050781 L 51.144531 18.050781 L 51.144531 3.007812 L 3.007812 3.007812 L 3.007812 18.050781 L 12.035156 18.050781 C 13.695312 18.050781 15.042969 19.398438 15.042969 21.058594 L 15.042969 57.160156 C 15.042969 58.820312 13.695312 60.167969 12.035156 60.167969 L 3.007812 60.167969 L 3.007812 75.210938 L 51.144531 75.210938 L 51.144531 60.167969 L 42.117188 60.167969 C 40.457031 60.167969 39.109375 58.820312 39.109375 57.160156 L 39.109375 21.058594 C 39.109375 19.398438 40.457031 18.050781 42.117188 18.050781 "/>
</g>
</svg>
